<svg xmlns="http://www.w3.org/2000/svg" viewBox="0 0 640 640">
  <path d="M 186 137 L 209 138 L 223 148 L 418 147 L 434 137 L 454 137 L 482 144 L 508 158 L 516 167 L 519 184 L 531 199 L 543 227 L 567 349 L 574 404 L 575 439 L 569 464 L 557 485 L 546 495 L 530 502 L 514 502 L 495 493 L 479 478 L 462 454 L 432 397 L 417 386 L 226 385 L 216 389 L 205 400 L 174 459 L 147 491 L 129 501 L 109 502 L 87 490 L 77 478 L 68 458 L 64 438 L 64 417 L 74 337 L 95 231 L 107 201 L 120 184 L 121 172 L 126 163 L 152 146 L 186 137 Z" fill="white" stroke="none"/>
</svg>